#!OML:ASF F:\VICON\USERDATA\INSTALL\rory3\rory3.ASF
:FULLY-SPECIFIED
:DEGREES
31
root 0.4546766899873348 17.90361175602346 16.402720241652187 3.6818569999064197 0.49099747078227374 -2.6540317526385704
lfemur -27.512875925809986 -0.15617405376640336 -15.352265022681186
ltibia 34.74479474268807
lfoot 5.295195821036332 -11.749317590841116
ltoes -12.107487878741203
rfemur -2.061862934075103 3.180792856553998 33.35805879025852
rtibia 50.83683626037919
rfoot -0.9053878375346613 -0.8177421889184018
rtoes 4.111081267737868
lowerback -8.881784189112644e-10 0.9457885316498099 4.374064474463771
upperback -1.2697932216650323 4.562542759556204 1.6988121353613146
thorax -8.396615309861158 2.1447432064873855 -3.172877022829888
lowerneck -19.702368071780935 -4.224026659554984 -2.3894682101121787
upperneck 10.286855751345541 -8.650118404928147 8.07205365605267
head 7.62157224966449 -2.992960582557198 1.4675296154508422
lclavicle -8.361762533092088e-09 -5.605336458438426e-07
lhumerus -58.72064812513107 -6.544833230611102 95.36384693355959
lradius 111.28943462723053
lwrist 33.29101857831223
lhand -20.993100585310597 2.851102895115006
lfingers nan
lthumb 5.59280012923833 32.88975458629995
rclavicle -1.1781405046963897e-08 -5.799271071645577e-07
rhumerus -35.225531961689555 17.67271815937079 -99.35837088224504
rradius 118.33744149541809
rwrist -17.055449738753865
rhand -16.470239459175524 -8.881784189112644e-10
rfingers nan
rthumb 10.09246078429301 9.929345336649838
32
root 0.45786670235873445 17.740709853121146 15.085403547635977 3.844302793635836 -0.11281792240826793 -2.535071061349395
lfemur -22.824396083071832 -3.4121434961201693 -18.21075235487672
ltibia 15.270814241370857
lfoot 0.9506055643416473 -9.839731640498712
ltoes -14.175919923131035
rfemur -7.153089021603339 2.5551549705135095 30.089806897015137
rtibia 68.58647741598988
rfoot 12.474204676793118 2.5602051336843896
rtoes 4.3263661267196465
lowerback -8.881784189112644e-10 0.914460324261405 2.198152045886921
upperback -1.344651419915874 3.605384752829467 1.0434238458338285
thorax -7.946287767927963 1.5466459259486087 -2.4572855870734926
lowerneck -19.694554485194168 -4.476108510926526 -2.352607410280788
upperneck 11.138524926082837 -8.617204796873304 7.919062660691328
head 7.461410861958931 -3.0131176527946057 1.6698716016084447
lclavicle -5.011599095209558e-08 -6.799969443508444e-07
lhumerus -59.125221465257965 -5.153790761083088 94.25374425854217
lradius 107.6387761576355
lwrist 33.11216516677161
lhand -20.89156999046476 3.062480612623701
lfingers nan
lthumb 5.418101861280606 32.83777993901928
rclavicle 2.9549464028566343e-08 -6.723449443885594e-07
rhumerus -32.70356459345898 17.81707614484532 -99.33804048995039
rradius 117.2095423281536
rwrist -16.34297021063032
rhand -16.597695975881837 -8.881784189112644e-10
rfingers nan
rthumb 10.095825631094913 10.310681240822744
33
root 0.4549782049253145 17.77468932948066 14.809960105204112 3.63984334712094 0.09929657335780795 -1.8526042333039854
lfemur -18.313675965732646 -4.858317500904416 -20.582431178991296
ltibia 5.301888724358562
lfoot 2.2389025368064437 -9.802046866944256
ltoes -16.082748732696142
rfemur -13.11431314618653 1.7119290607471274 27.932755833223805
rtibia 87.87960875984749
rfoot 28.169602918736196 5.048584067334513
rtoes 6.862348061271328
lowerback -8.881784189112644e-10 0.896721247377115 1.1923801064921173
upperback -1.4173100673511978 2.7047175161550996 0.3019628495213329
thorax -7.574089195152722 1.13016113884918 -1.8645430280752575
lowerneck -19.38502867452772 -4.477956054841926 -2.319943784712115
upperneck 11.99509978515717 -8.59410487936912 6.889350754051947
head 7.3334269922021145 -2.973319313658171 1.6765466971437484
lclavicle -1.7616710257271772e-07 -7.813592334441489e-07
lhumerus -59.17032752368646 -4.7343288812705975 93.59186010070694
lradius 105.2676289905374
lwrist 34.128456036137905
lhand -20.798450638776078 3.247007125774826
lfingers nan
lthumb 5.637841172487879 33.26810161512773
rclavicle -1.0828100500952461e-07 -7.975554625717117e-07
rhumerus -31.295542324034628 17.58739583901741 -99.2391741748529
rradius 116.26813480512679
rwrist -15.227228265370092
rhand -16.423524520600854 -8.881784189112644e-10
rfingers nan
rthumb 9.973807942791124 9.869552818361049
34
root 0.4455142621375373 17.917622474653424 14.973648387426923 3.402782718756203 0.3123383773935742 -2.3323088680720643
lfemur -13.348633384709842 -1.396605234979519 -25.07098357973566
ltibia 4.7265018687281
lfoot 9.988245619140113 -13.353650793894218
ltoes -16.583625840528363
rfemur -20.596075777872503 -0.34568602152057215 24.022797042762885
rtibia 102.54350629818734
rfoot 34.19528292117584 5.257304110797392
rtoes 7.041272315266069
lowerback -8.881784189112644e-10 0.5349212036290045 -2.73764210573884
upperback -1.232221699520526 1.6420698283527355 -0.5667091926744507
thorax -7.402115720107426 0.7550238091532953 -1.2041688705462315
lowerneck -19.193823968685003 -4.539589930779126 -2.4214135624253466
upperneck 12.607047361344897 -8.179523756439348 6.300806271665911
head 7.042642571362155 -2.8115530434788827 1.7778003103385778
lclavicle -1.6109500145000566e-07 -6.392228298232802e-07
lhumerus -60.01691094072933 -4.6533822333331525 93.14631698014033
lradius 103.47711696089706
lwrist 34.197909850086454
lhand -20.356685307647652 3.6767243888574344
lfingers nan
lthumb 5.878242288209976 33.49214340803015
rclavicle -1.0297793256229997e-07 -7.069623719088224e-07
rhumerus -31.50193799116459 17.35775550758952 -99.23000950044806
rradius 113.93764972301156
rwrist -14.187169257686703
rhand -16.370028326521386 -8.881784189112644e-10
rfingers nan
rthumb 10.01556891995858 9.668289547887852
35
root 0.437113413624487 17.88456216182772 15.206868521555684 3.274600056671855 -0.5159550414290424 -3.135838580188728
lfemur -14.183441562971232 -3.406314172938795 -26.035820724344255
ltibia 7.397569029744737
lfoot 13.407482614649457 -15.560474318854183
ltoes -13.493940293236262
rfemur -23.018170973336623 -0.5394594622933648 23.56239520910137
rtibia 109.0672974792055
rfoot 26.470421616901316 2.4406963676030227
rtoes 4.529643237906443
lowerback -8.881784189112644e-10 0.34925189649607824 -3.7307902378619042
upperback -1.1242370367336316 1.259510521344384 -0.5124629508133216
thorax -7.739919957594031 0.42385155843485023 -0.8390501737086171
lowerneck -18.97784159461631 -4.759425302847727 -2.6236261229491857
upperneck 12.66151412019559 -7.34307409904981 6.411254078000539
head 6.934904514493423 -2.5069488466463854 1.8228261656189138
lclavicle -1.3031278785661652e-07 -6.828269355858015e-07
lhumerus -61.21554965685724 -4.5253097337719055 92.89467860143704
lradius 103.68569286181655
lwrist 34.101286977292
lhand -20.661798450388975 3.0029413510382716
lfingers nan
lthumb 5.828228680549868 33.06540114191501
rclavicle -7.43481785857547e-08 -5.552330068738524e-07
rhumerus -31.700972887287953 17.113014170390283 -99.33268909050575
rradius 110.29094109539393
rwrist -14.362044950713036
rhand -16.47294929003781 -8.881784189112644e-10
rfingers nan
rthumb 9.930487336335068 9.734769244594236
36
root 0.4340962396087505 17.834022874682766 16.679518955427437 3.3500289435666435 -0.8453075408574631 -2.895612388924713
lfemur -12.39747870580036 -3.3149626228603832 -26.070502177893275
ltibia 8.417351963873948
lfoot 8.98610656305493 -12.819428008638777
ltoes -13.961395852274665
rfemur -25.32400510290676 -4.452430891726913 23.754469528895804
rtibia 108.33937872240384
rfoot 20.1073365632781 -1.740978345560955
rtoes 10.506957850747794
lowerback -8.881784189112644e-10 0.050304428779608945 -4.160186705744351
upperback -1.2978621913255242 0.15257396600642337 -0.29622986906356963
thorax -8.088804279297248 -0.24138319921994245 -0.15933589169699325
lowerneck -19.102121131071492 -4.641697639705227 -2.589693343357955
upperneck 12.501582789738965 -6.26151055446483 6.006270955117344
head 7.076051954299891 -1.9993975836694606 1.6693763466711597
lclavicle 9.25476721543335e-09 -4.0799188196608473e-07
lhumerus -63.52835345195693 -3.7874056164246204 92.23914997445154
lradius 106.46427052984036
lwrist 34.34765016727746
lhand -20.89590848475233 2.6247896743839423
lfingers nan
lthumb 5.5207827755097 32.62453652019264
rclavicle -2.276282999190129e-07 -4.1709334597554224e-07
rhumerus -32.13454661654859 16.997060994760712 -99.43691380714674
rradius 108.19353443588827
rwrist -15.176015376540361
rhand -16.427201258643656 -8.881784189112644e-10
rfingers nan
rthumb 10.032781079297282 9.540538913368298
37
root 0.4352770052746298 17.728984829193237 18.681183764786415 3.198816475837672 -0.8758260541728574 -2.8729869499277214
lfemur -14.85398485807196 -2.353871813237318 -25.40333912723006
ltibia 7.9405946620230665
lfoot 1.7202531424975533 -7.946853596475773
ltoes -17.686333245113275
rfemur -24.74888428494831 -3.4771227770193462 24.350611714311192
rtibia 103.00633231707624
rfoot 16.054508058775234 -4.849443438031582
rtoes 13.307774969987797
lowerback -8.881784189112644e-10 -0.08364749087955081 -3.421464387328194
upperback -1.3241277330712646 -0.5317318212590865 -0.014385485051289892
thorax -8.968683314907812 -0.548408073622477 0.6134738437326883
lowerneck -19.211755945325148 -4.612791182088588 -2.761948884610874
upperneck 11.869149191866411 -4.887545656077842 6.401523712063202
head 7.508994767412368 -1.393075945055896 1.7405202280764362
lclavicle -9.871980303880266e-08 -2.2288923656788814e-07
lhumerus -64.6785264666775 -2.4229292020417352 91.25207609817367
lradius 108.7944311460522
lwrist 34.812692934426124
lhand -20.89458154897199 2.7589729035994845
lfingers nan
lthumb 5.66885370258033 32.95335817492919
rclavicle -1.443264428839396e-07 -1.9077468147744676e-07
rhumerus -33.447965440985676 16.377885259165446 -99.37089794844644
rradius 107.37764445109458
rwrist -15.553051689906992
rhand -16.27351660844085 -8.881784189112644e-10
rfingers nan
rthumb 10.00929636369531 9.670688658615074
